<mxfile host="app.diagrams.net" modified="2024-01-18T18:13:40.690Z" agent="Mozilla/5.0 (Windows NT 10.0; Win64; x64) AppleWebKit/537.36 (KHTML, like Gecko) Chrome/120.0.0.0 Safari/537.36" etag="31TcDzUkd_fJda6aUlI4" version="22.1.18" type="github">
  <diagram id="C5RBs43oDa-KdzZeNtuy" name="Page-1">
    <mxGraphModel dx="586" dy="556" grid="1" gridSize="10" guides="1" tooltips="1" connect="1" arrows="1" fold="1" page="1" pageScale="1" pageWidth="827" pageHeight="1169" math="0" shadow="0">
      <root>
        <mxCell id="WIyWlLk6GJQsqaUBKTNV-0" />
        <mxCell id="WIyWlLk6GJQsqaUBKTNV-1" parent="WIyWlLk6GJQsqaUBKTNV-0" />
        <mxCell id="ElN40q-fLyF-u9tY349P-5" style="edgeStyle=orthogonalEdgeStyle;rounded=0;orthogonalLoop=1;jettySize=auto;html=1;exitX=0.5;exitY=1;exitDx=0;exitDy=0;exitPerimeter=0;entryX=0.5;entryY=0;entryDx=0;entryDy=0;" edge="1" parent="WIyWlLk6GJQsqaUBKTNV-1" source="ElN40q-fLyF-u9tY349P-1" target="ElN40q-fLyF-u9tY349P-2">
          <mxGeometry relative="1" as="geometry" />
        </mxCell>
        <mxCell id="ElN40q-fLyF-u9tY349P-1" value="Начало" style="strokeWidth=2;html=1;shape=mxgraph.flowchart.terminator;whiteSpace=wrap;" vertex="1" parent="WIyWlLk6GJQsqaUBKTNV-1">
          <mxGeometry x="350" y="30" width="100" height="60" as="geometry" />
        </mxCell>
        <mxCell id="ElN40q-fLyF-u9tY349P-6" style="edgeStyle=orthogonalEdgeStyle;rounded=0;orthogonalLoop=1;jettySize=auto;html=1;exitX=0.5;exitY=1;exitDx=0;exitDy=0;entryX=0.5;entryY=0;entryDx=0;entryDy=0;" edge="1" parent="WIyWlLk6GJQsqaUBKTNV-1" source="ElN40q-fLyF-u9tY349P-2" target="ElN40q-fLyF-u9tY349P-3">
          <mxGeometry relative="1" as="geometry" />
        </mxCell>
        <mxCell id="ElN40q-fLyF-u9tY349P-2" value="&lt;div style=&quot;text-align: justify;&quot;&gt;&lt;font style=&quot;font-size: 12px;&quot;&gt;&lt;span style=&quot;background-color: initial;&quot;&gt;Ввод&amp;nbsp;&lt;/span&gt;&lt;font style=&quot;background-color: initial;&quot; face=&quot;Times New Roman, serif&quot;&gt;A&lt;/font&gt;&lt;font style=&quot;background-color: initial;&quot; face=&quot;Times New Roman, serif&quot;&gt;,&lt;/font&gt;&lt;br&gt;&lt;/font&gt;&lt;/div&gt;&lt;font size=&quot;3&quot; style=&quot;&quot;&gt;&lt;div style=&quot;text-align: justify;&quot;&gt;&lt;font style=&quot;background-color: initial;&quot; face=&quot;Times New Roman, serif&quot;&gt;&lt;span lang=&quot;en-US&quot;&gt;B&lt;/span&gt;&lt;/font&gt;&lt;font style=&quot;background-color: initial;&quot; face=&quot;Times New Roman, serif&quot;&gt;,&lt;/font&gt;&lt;/div&gt;&lt;font style=&quot;background-color: initial;&quot; face=&quot;Times New Roman, serif&quot;&gt;&lt;div style=&quot;text-align: justify;&quot;&gt;&lt;font style=&quot;background-color: initial;&quot; face=&quot;Times New Roman, serif&quot;&gt;&lt;span lang=&quot;en-US&quot;&gt;C&lt;/span&gt;&lt;/font&gt;&lt;font style=&quot;background-color: initial;&quot; face=&quot;Times New Roman, serif&quot;&gt;,&amp;nbsp;&lt;/font&gt;&lt;font style=&quot;background-color: initial;&quot; face=&quot;Times New Roman, serif&quot;&gt;&lt;span style=&quot;&quot; lang=&quot;en-US&quot;&gt;D&lt;/span&gt;&lt;/font&gt;&lt;/div&gt;&lt;/font&gt;&lt;/font&gt;" style="shape=parallelogram;html=1;strokeWidth=2;perimeter=parallelogramPerimeter;whiteSpace=wrap;rounded=1;arcSize=12;size=0.07142857142857142;" vertex="1" parent="WIyWlLk6GJQsqaUBKTNV-1">
          <mxGeometry x="300" y="120" width="210" height="60" as="geometry" />
        </mxCell>
        <mxCell id="ElN40q-fLyF-u9tY349P-3" value="max:= A+1, min:=C+D" style="rounded=1;whiteSpace=wrap;html=1;absoluteArcSize=1;arcSize=14;strokeWidth=2;" vertex="1" parent="WIyWlLk6GJQsqaUBKTNV-1">
          <mxGeometry x="320" y="220" width="170" height="60" as="geometry" />
        </mxCell>
        <mxCell id="ElN40q-fLyF-u9tY349P-9" style="edgeStyle=orthogonalEdgeStyle;rounded=0;orthogonalLoop=1;jettySize=auto;html=1;entryX=0.5;entryY=0;entryDx=0;entryDy=0;" edge="1" parent="WIyWlLk6GJQsqaUBKTNV-1" source="ElN40q-fLyF-u9tY349P-7" target="ElN40q-fLyF-u9tY349P-8">
          <mxGeometry relative="1" as="geometry" />
        </mxCell>
        <mxCell id="ElN40q-fLyF-u9tY349P-12" value="Да" style="edgeLabel;html=1;align=center;verticalAlign=middle;resizable=0;points=[];" vertex="1" connectable="0" parent="ElN40q-fLyF-u9tY349P-9">
          <mxGeometry x="-0.2494" y="5" relative="1" as="geometry">
            <mxPoint as="offset" />
          </mxGeometry>
        </mxCell>
        <mxCell id="ElN40q-fLyF-u9tY349P-11" style="edgeStyle=orthogonalEdgeStyle;rounded=0;orthogonalLoop=1;jettySize=auto;html=1;exitX=0.5;exitY=1;exitDx=0;exitDy=0;exitPerimeter=0;" edge="1" parent="WIyWlLk6GJQsqaUBKTNV-1" source="ElN40q-fLyF-u9tY349P-7">
          <mxGeometry relative="1" as="geometry">
            <mxPoint x="403" y="530" as="targetPoint" />
          </mxGeometry>
        </mxCell>
        <mxCell id="ElN40q-fLyF-u9tY349P-15" value="Нет&lt;br&gt;" style="edgeLabel;html=1;align=center;verticalAlign=middle;resizable=0;points=[];" vertex="1" connectable="0" parent="ElN40q-fLyF-u9tY349P-11">
          <mxGeometry x="-0.0506" y="-2" relative="1" as="geometry">
            <mxPoint as="offset" />
          </mxGeometry>
        </mxCell>
        <mxCell id="ElN40q-fLyF-u9tY349P-7" value="b &amp;lt; min" style="strokeWidth=2;html=1;shape=mxgraph.flowchart.decision;whiteSpace=wrap;" vertex="1" parent="WIyWlLk6GJQsqaUBKTNV-1">
          <mxGeometry x="320" y="300" width="165" height="100" as="geometry" />
        </mxCell>
        <mxCell id="ElN40q-fLyF-u9tY349P-16" style="edgeStyle=orthogonalEdgeStyle;rounded=0;orthogonalLoop=1;jettySize=auto;html=1;" edge="1" parent="WIyWlLk6GJQsqaUBKTNV-1" source="ElN40q-fLyF-u9tY349P-8">
          <mxGeometry relative="1" as="geometry">
            <mxPoint x="400" y="490" as="targetPoint" />
            <Array as="points">
              <mxPoint x="615" y="490" />
              <mxPoint x="411" y="490" />
            </Array>
          </mxGeometry>
        </mxCell>
        <mxCell id="ElN40q-fLyF-u9tY349P-8" value="min:=b" style="rounded=1;whiteSpace=wrap;html=1;absoluteArcSize=1;arcSize=14;strokeWidth=2;" vertex="1" parent="WIyWlLk6GJQsqaUBKTNV-1">
          <mxGeometry x="550" y="390" width="130" height="50" as="geometry" />
        </mxCell>
        <mxCell id="ElN40q-fLyF-u9tY349P-10" style="edgeStyle=orthogonalEdgeStyle;rounded=0;orthogonalLoop=1;jettySize=auto;html=1;exitX=0.5;exitY=1;exitDx=0;exitDy=0;entryX=0.5;entryY=0;entryDx=0;entryDy=0;entryPerimeter=0;" edge="1" parent="WIyWlLk6GJQsqaUBKTNV-1" source="ElN40q-fLyF-u9tY349P-3" target="ElN40q-fLyF-u9tY349P-7">
          <mxGeometry relative="1" as="geometry" />
        </mxCell>
        <mxCell id="ElN40q-fLyF-u9tY349P-26" style="edgeStyle=orthogonalEdgeStyle;rounded=0;orthogonalLoop=1;jettySize=auto;html=1;exitX=0.5;exitY=1;exitDx=0;exitDy=0;exitPerimeter=0;entryX=0.5;entryY=0;entryDx=0;entryDy=0;" edge="1" parent="WIyWlLk6GJQsqaUBKTNV-1" source="ElN40q-fLyF-u9tY349P-18" target="ElN40q-fLyF-u9tY349P-23">
          <mxGeometry relative="1" as="geometry" />
        </mxCell>
        <mxCell id="ElN40q-fLyF-u9tY349P-31" value="Нет" style="edgeLabel;html=1;align=center;verticalAlign=middle;resizable=0;points=[];" vertex="1" connectable="0" parent="ElN40q-fLyF-u9tY349P-26">
          <mxGeometry x="-0.6688" y="-1" relative="1" as="geometry">
            <mxPoint as="offset" />
          </mxGeometry>
        </mxCell>
        <mxCell id="ElN40q-fLyF-u9tY349P-28" style="edgeStyle=orthogonalEdgeStyle;rounded=0;orthogonalLoop=1;jettySize=auto;html=1;exitX=1;exitY=0.5;exitDx=0;exitDy=0;exitPerimeter=0;entryX=0.5;entryY=0;entryDx=0;entryDy=0;" edge="1" parent="WIyWlLk6GJQsqaUBKTNV-1" source="ElN40q-fLyF-u9tY349P-18" target="ElN40q-fLyF-u9tY349P-20">
          <mxGeometry relative="1" as="geometry" />
        </mxCell>
        <mxCell id="ElN40q-fLyF-u9tY349P-30" value="Да" style="edgeLabel;html=1;align=center;verticalAlign=middle;resizable=0;points=[];" vertex="1" connectable="0" parent="ElN40q-fLyF-u9tY349P-28">
          <mxGeometry x="-0.1922" y="3" relative="1" as="geometry">
            <mxPoint x="-1" as="offset" />
          </mxGeometry>
        </mxCell>
        <mxCell id="ElN40q-fLyF-u9tY349P-18" value="max&amp;lt;min" style="strokeWidth=2;html=1;shape=mxgraph.flowchart.decision;whiteSpace=wrap;" vertex="1" parent="WIyWlLk6GJQsqaUBKTNV-1">
          <mxGeometry x="322.5" y="530" width="165" height="100" as="geometry" />
        </mxCell>
        <mxCell id="ElN40q-fLyF-u9tY349P-29" style="edgeStyle=orthogonalEdgeStyle;rounded=0;orthogonalLoop=1;jettySize=auto;html=1;exitX=0.5;exitY=1;exitDx=0;exitDy=0;" edge="1" parent="WIyWlLk6GJQsqaUBKTNV-1" source="ElN40q-fLyF-u9tY349P-20">
          <mxGeometry relative="1" as="geometry">
            <mxPoint x="400" y="660" as="targetPoint" />
          </mxGeometry>
        </mxCell>
        <mxCell id="ElN40q-fLyF-u9tY349P-20" value="max:=min" style="rounded=1;whiteSpace=wrap;html=1;absoluteArcSize=1;arcSize=14;strokeWidth=2;" vertex="1" parent="WIyWlLk6GJQsqaUBKTNV-1">
          <mxGeometry x="550" y="620" width="130" height="50" as="geometry" />
        </mxCell>
        <mxCell id="ElN40q-fLyF-u9tY349P-23" value="&lt;div style=&quot;text-align: justify;&quot;&gt;Вывод max&lt;/div&gt;" style="shape=parallelogram;html=1;strokeWidth=2;perimeter=parallelogramPerimeter;whiteSpace=wrap;rounded=1;arcSize=12;size=0.07142857142857142;" vertex="1" parent="WIyWlLk6GJQsqaUBKTNV-1">
          <mxGeometry x="300" y="710" width="210" height="60" as="geometry" />
        </mxCell>
        <mxCell id="ElN40q-fLyF-u9tY349P-24" value="Конец" style="strokeWidth=2;html=1;shape=mxgraph.flowchart.terminator;whiteSpace=wrap;" vertex="1" parent="WIyWlLk6GJQsqaUBKTNV-1">
          <mxGeometry x="350" y="810" width="100" height="60" as="geometry" />
        </mxCell>
        <mxCell id="ElN40q-fLyF-u9tY349P-27" style="edgeStyle=orthogonalEdgeStyle;rounded=0;orthogonalLoop=1;jettySize=auto;html=1;exitX=0.5;exitY=1;exitDx=0;exitDy=0;entryX=0.565;entryY=0.023;entryDx=0;entryDy=0;entryPerimeter=0;" edge="1" parent="WIyWlLk6GJQsqaUBKTNV-1" source="ElN40q-fLyF-u9tY349P-23" target="ElN40q-fLyF-u9tY349P-24">
          <mxGeometry relative="1" as="geometry">
            <Array as="points">
              <mxPoint x="405" y="790" />
              <mxPoint x="400" y="790" />
              <mxPoint x="400" y="811" />
            </Array>
          </mxGeometry>
        </mxCell>
      </root>
    </mxGraphModel>
  </diagram>
</mxfile>
